Coordinates
version=1
nRows=40
nColumns=38
inDegrees=no

Units are S.I. units (second, meters, Newtons, ...)
If the header above contains a line with 'inDegrees', this indicates whether rotational values are in degrees (yes) or radians (no).

endheader
time	pelvis_tilt	pelvis_list	pelvis_rotation	pelvis_tx	pelvis_ty	pelvis_tz	hip_flexion_r	hip_adduction_r	hip_rotation_r	knee_angle_r	ankle_angle_r	subtalar_angle_r	mtp_angle_r	hip_flexion_l	hip_adduction_l	hip_rotation_l	knee_angle_l	ankle_angle_l	subtalar_angle_l	mtp_angle_l	lumbar_extension	lumbar_bending	lumbar_rotation	arm_flex_r	arm_add_r	arm_rot_r	elbow_flex_r	pro_sup_r	wrist_flex_r	wrist_dev_r	arm_flex_l	arm_add_l	arm_rot_l	elbow_flex_l	pro_sup_l	wrist_flex_l	wrist_dev_l
1.37	0.931848	1.47215	-2.48043	0.670688	0.0815996	1.01378	-0.0106562	0.00261838	0.134268	1.20163	-0.273058	0	0	0.198945	0.0913694	-0.237689	0.583099	-0.155899	0	0	-0.420527	-0.123308	-0.00680749	-0.0243075	-0.246236	0.559951	0.422542	1.20816	0	0	-0.0977732	-0.381077	0.406536	0.561513	1.07298	0	0
1.38	0.886896	1.47067	-2.4315	0.672372	0.0715851	1.01531	0.0157027	0.00648558	0.133997	1.2419	-0.253942	0	0	0.178532	0.091277	-0.235337	0.573041	-0.152978	0	0	-0.423929	-0.118857	-0.0164602	-0.0124787	-0.261444	0.64505	0.43061	1.1224	0	0	-0.101554	-0.376893	0.388503	0.558805	1.08742	0	0
1.39	0.836497	1.46933	-2.37712	0.674132	0.0617504	1.01697	0.0420978	0.0108462	0.134696	1.27747	-0.243768	0	0	0.157626	0.0903951	-0.236821	0.562763	-0.150862	0	0	-0.429002	-0.11346	-0.0224852	-0.0122496	-0.261715	0.636015	0.434437	1.1321	0	0	-0.0990495	-0.376045	0.392247	0.554616	1.08502	0	0
1.4	0.783443	1.4687	-2.31976	0.676015	0.0520384	1.01863	0.0688146	0.0159198	0.135385	1.30796	-0.235075	0	0	0.137353	0.0880282	-0.243452	0.553032	-0.14894	0	0	-0.433724	-0.106712	-0.0277195	-0.0118296	-0.261929	0.626029	0.437171	1.1431	0	0	-0.0956481	-0.374546	0.396038	0.55055	1.08063	0	0
1.41	0.729415	1.46845	-2.26117	0.677968	0.0423868	1.02028	0.0956588	0.0206595	0.134318	1.33327	-0.225981	0	0	0.117521	0.0855291	-0.249191	0.543224	-0.146967	0	0	-0.43794	-0.0992974	-0.0322095	-0.0114524	-0.262265	0.61588	0.439109	1.15612	0	0	-0.0910645	-0.372512	0.401103	0.545244	1.07636	0	0
1.42	0.672542	1.46809	-2.19977	0.679942	0.0328503	1.02192	0.122036	0.0248825	0.131862	1.35307	-0.223344	0	0	0.0976441	0.0827236	-0.252574	0.533204	-0.145855	0	0	-0.44201	-0.0915507	-0.0371787	-0.00775144	-0.26512	0.62374	0.440298	1.15036	0	0	-0.088402	-0.367662	0.393325	0.539597	1.08498	0	0
1.43	0.625109	1.46824	-2.14812	0.681856	0.0233937	1.02345	0.149201	0.0279517	0.128377	1.36783	-0.211256	0	0	0.0789898	0.0804766	-0.253574	0.522211	-0.144639	0	0	-0.445372	-0.084152	-0.0393824	-0.0101549	-0.261948	0.59187	0.440632	1.18464	0	0	-0.0805926	-0.368701	0.41494	0.534329	1.06738	0	0
1.44	0.581763	1.46844	-2.1014	0.683697	0.0140245	1.02484	0.17644	0.0300363	0.124492	1.37764	-0.203046	0	0	0.0609214	0.0779009	-0.25448	0.511143	-0.144006	0	0	-0.446693	-0.0774479	-0.0450043	0.00527356	-0.277858	0.682252	0.443896	1.09225	0	0	-0.0797695	-0.363845	0.404869	0.529265	1.07502	0	0
1.45	0.548314	1.46866	-2.06525	0.685358	0.00466598	1.02613	0.203586	0.0310086	0.12062	1.38223	-0.19788	0	0	0.0433604	0.0761263	-0.254202	0.499066	-0.144058	0	0	-0.448399	-0.0720408	-0.0474023	0.00665717	-0.27689	0.672142	0.442374	1.10484	0	0	-0.0752474	-0.36202	0.409243	0.52475	1.07186	0	0
1.46	0.518114	1.46828	-2.03314	0.686852	-0.00471758	1.02741	0.229318	0.0312208	0.116401	1.38153	-0.193159	0	0	0.0250624	0.0749509	-0.25392	0.48621	-0.144554	0	0	-0.45039	-0.0676919	-0.0490937	0.00808846	-0.27545	0.661439	0.440336	1.11848	0	0	-0.0709264	-0.360629	0.413432	0.520828	1.06887	0	0
1.47	0.486486	1.4673	-2	0.688236	-0.0141765	1.02865	0.253061	0.031034	0.111458	1.37541	-0.187679	0	0	0.00544669	0.0738256	-0.254034	0.472427	-0.145002	0	0	-0.452807	-0.0636541	-0.0502641	0.00932128	-0.273785	0.649646	0.438146	1.1327	0	0	-0.0672344	-0.359661	0.417345	0.517971	1.06605	0	0
1.48	0.452784	1.46595	-1.96493	0.689583	-0.0237009	1.02985	0.274865	0.0306135	0.105953	1.36416	-0.181065	0	0	-0.0150805	0.0725408	-0.254345	0.458028	-0.145411	0	0	-0.455458	-0.059575	-0.0511373	0.0102078	-0.272252	0.636924	0.436439	1.14764	0	0	-0.0639104	-0.358877	0.421232	0.515325	1.06388	0	0
1.49	0.417451	1.46468	-1.92777	0.690915	-0.0332604	1.03099	0.295135	0.0300672	0.099558	1.34787	-0.175019	0	0	-0.0356992	0.0709331	-0.253713	0.443114	-0.145982	0	0	-0.45806	-0.055249	-0.0519816	0.0102852	-0.270247	0.620216	0.435014	1.16751	0	0	-0.060008	-0.358603	0.427888	0.51206	1.062	0	0
1.5	0.37599	1.46314	-1.88424	0.692227	-0.042772	1.0321	0.313134	0.0299926	0.0918534	1.32632	-0.169345	0	0	-0.0568028	0.068622	-0.251897	0.427486	-0.147307	0	0	-0.45966	-0.0500985	-0.0565492	0.0308169	-0.290852	0.746162	0.440507	1.03759	0	0	-0.0613948	-0.355746	0.415698	0.511359	1.06895	0	0
1.51	0.336894	1.4632	-1.84261	0.693484	-0.0523448	1.03306	0.331028	0.0302111	0.0826338	1.2994	-0.165028	0	0	-0.0758298	0.0655756	-0.249884	0.412092	-0.148933	0	0	-0.460892	-0.0445085	-0.0576072	0.0317196	-0.289646	0.736032	0.438898	1.04974	0	0	-0.0588712	-0.354889	0.41579	0.511461	1.06561	0	0
1.52	0.298995	1.46375	-1.80216	0.69472	-0.0618418	1.03388	0.348338	0.0299038	0.0728667	1.26842	-0.159977	0	0	-0.094007	0.0624469	-0.248002	0.396479	-0.15099	0	0	-0.461733	-0.0390588	-0.0584006	0.0325856	-0.288317	0.725148	0.437254	1.06291	0	0	-0.0559719	-0.353896	0.416971	0.510162	1.06556	0	0
1.53	0.265735	1.46501	-1.76676	0.695921	-0.07127	1.03448	0.365087	0.0291169	0.0629143	1.23319	-0.157104	0	0	-0.110869	0.0597514	-0.246991	0.381012	-0.152881	0	0	-0.461768	-0.0341239	-0.0587057	0.0332525	-0.286569	0.712561	0.43529	1.07659	0	0	-0.0530095	-0.352809	0.418286	0.508618	1.06561	0	0
1.54	0.235859	1.46733	-1.73531	0.697055	-0.0806615	1.03481	0.381493	0.028252	0.053079	1.19438	-0.157326	0	0	-0.125816	0.0572029	-0.247441	0.366822	-0.153041	0	0	-0.46062	-0.0295656	-0.0584163	0.0337706	-0.284713	0.699948	0.433185	1.08934	0	0	-0.049866	-0.351631	0.420072	0.507317	1.06422	0	0
1.55	0.20752	1.4696	-1.70577	0.698104	-0.0900058	1.03506	0.395845	0.0271415	0.0430312	1.15171	-0.155932	0	0	-0.14114	0.0555125	-0.24604	0.350884	-0.154672	0	0	-0.459676	-0.0254193	-0.0578967	0.0337943	-0.281031	0.679983	0.429245	1.11156	0	0	-0.0460685	-0.350495	0.423363	0.505505	1.06265	0	0
1.56	0.176879	1.47191	-1.67438	0.699068	-0.0992959	1.03515	0.408277	0.0261132	0.0324328	1.10573	-0.154031	0	0	-0.156032	0.0536499	-0.244935	0.335813	-0.15622	0	0	-0.458027	-0.0212266	-0.0589474	0.0473027	-0.291593	0.753854	0.429471	1.03716	0	0	-0.0446038	-0.347781	0.417593	0.503563	1.0682	0	0
1.57	0.14806	1.4751	-1.64544	0.699882	-0.108597	1.03505	0.419735	0.0249974	0.0219539	1.05688	-0.150678	0	0	-0.169389	0.0519394	-0.244285	0.321794	-0.157531	0	0	-0.456354	-0.017548	-0.057255	0.0477096	-0.288016	0.73694	0.424594	1.05611	0	0	-0.0408528	-0.346645	0.420539	0.501825	1.06654	0	0
1.58	0.117992	1.47933	-1.61574	0.700611	-0.11792	1.03468	0.430416	0.0241839	0.0115749	1.0056	-0.148832	0	0	-0.180334	0.0497199	-0.245716	0.311006	-0.157219	0	0	-0.45362	-0.0139839	-0.0548366	0.0491068	-0.286798	0.731415	0.421528	1.06134	0	0	-0.0378064	-0.345217	0.420785	0.50092	1.06634	0	0
1.59	0.0921912	1.48344	-1.59015	0.701324	-0.127311	1.03421	0.438653	0.0228213	0.000256502	0.951308	-0.142731	0	0	-0.191658	0.0482249	-0.24572	0.299193	-0.158241	0	0	-0.450635	-0.0109913	-0.0535418	0.0535073	-0.288729	0.74793	0.419692	1.04549	0	0	-0.0358682	-0.344046	0.419309	0.500915	1.06521	0	0
1.6	0.0713371	1.48749	-1.56948	0.701922	-0.136883	1.03361	0.444465	0.0214179	-0.0119333	0.89369	-0.136229	0	0	-0.203128	0.0473343	-0.243936	0.287432	-0.159735	0	0	-0.44796	-0.00892993	-0.0511739	0.0466718	-0.278814	0.686433	0.414125	1.1117	0	0	-0.0326139	-0.345197	0.427647	0.50111	1.05981	0	0
1.61	0.0491377	1.49047	-1.54783	0.702508	-0.146509	1.03287	0.447197	0.0207927	-0.0254511	0.833115	-0.129689	0	0	-0.216121	0.0466	-0.241054	0.275113	-0.160975	0	0	-0.44522	-0.00676983	-0.0515293	0.0599377	-0.293993	0.779738	0.421138	1.00873	0	0	-0.0345262	-0.343795	0.416894	0.503348	1.07033	0	0
1.62	0.0284165	1.49511	-1.52746	0.703048	-0.156273	1.03184	0.450376	0.0207356	-0.0405717	0.770784	-0.123693	0	0	-0.226887	0.0457822	-0.237701	0.263883	-0.16172	0	0	-0.441208	-0.00496626	-0.0502433	0.0570621	-0.291801	0.759758	0.420998	1.02603	0	0	-0.0349152	-0.344612	0.416543	0.50681	1.07047	0	0
1.63	0.0106413	1.50112	-1.50924	0.703624	-0.166206	1.03051	0.454137	0.0207558	-0.0575265	0.70794	-0.119319	0	0	-0.235396	0.0448379	-0.23466	0.254704	-0.161162	0	0	-0.435204	-0.00343567	-0.0496903	0.0535798	-0.28949	0.738864	0.420506	1.04897	0	0	-0.0353396	-0.346568	0.421316	0.510281	1.06599	0	0
1.64	-0.00819341	1.50703	-1.48846	0.704289	-0.176285	1.02898	0.456788	0.020633	-0.0767234	0.644732	-0.116782	0	0	-0.243796	0.0434535	-0.229899	0.246155	-0.160596	0	0	-0.428626	-0.00139713	-0.051197	0.0546669	-0.293334	0.755901	0.423457	1.02933	0	0	-0.0375079	-0.347289	0.418828	0.513519	1.06826	0	0
1.65	-0.0278486	1.5123	-1.46669	0.704975	-0.186466	1.02732	0.458339	0.0210037	-0.0953208	0.583851	-0.120623	0	0	-0.252825	0.0420289	-0.225406	0.238234	-0.159477	0	0	-0.422661	0.000805803	-0.0525304	0.0553589	-0.296877	0.772286	0.425878	1.01104	0	0	-0.0397469	-0.347894	0.416344	0.517032	1.07074	0	0
1.66	-0.0414422	1.5169	-1.45076	0.705639	-0.196732	1.02559	0.458653	0.0216677	-0.110875	0.527294	-0.131986	0	0	-0.262658	0.0410195	-0.220986	0.230484	-0.158718	0	0	-0.418472	0.00255359	-0.051678	0.0402276	-0.284302	0.679962	0.422927	1.109	0	0	-0.0398454	-0.349365	0.419475	0.520971	1.06906	0	0
1.67	-0.0563311	1.52008	-1.43197	0.706392	-0.207085	1.02387	0.456457	0.0223169	-0.124484	0.475184	-0.143676	0	0	-0.273639	0.0393676	-0.216688	0.223844	-0.157738	0	0	-0.414657	0.00518193	-0.0551144	0.045379	-0.293377	0.731161	0.427313	1.05362	0	0	-0.0445673	-0.346407	0.399686	0.52437	1.08567	0	0
1.68	-0.0629791	1.52445	-1.41966	0.707176	-0.217629	1.02195	0.455843	0.02203	-0.134539	0.432274	-0.145838	0	0	-0.282624	0.037521	-0.212589	0.219215	-0.15618	0	0	-0.409853	0.00761572	-0.0578667	0.0402677	-0.290611	0.712293	0.425999	1.07076	0	0	-0.0440156	-0.349485	0.412736	0.526486	1.0757	0	0
1.69	-0.067276	1.52749	-1.40857	0.708057	-0.228243	1.02007	0.454314	0.0212745	-0.138467	0.396416	-0.148629	0	0	-0.293021	0.0353977	-0.207898	0.214137	-0.155135	0	0	-0.406314	0.0105892	-0.0625032	0.0398918	-0.292486	0.724882	0.426242	1.0548	0	0	-0.0454332	-0.349441	0.411208	0.52781	1.08133	0	0
1.7	-0.0759531	1.52974	-1.39206	0.709034	-0.238923	1.01819	0.453091	0.0204183	-0.138493	0.370806	-0.149753	0	0	-0.303896	0.0325075	-0.203045	0.209698	-0.154277	0	0	-0.403664	0.0144224	-0.0678196	0.0392698	-0.294229	0.736094	0.426419	1.03939	0	0	-0.0468239	-0.348943	0.408858	0.52905	1.08701	0	0
1.71	-0.0880938	1.53111	-1.3715	0.710075	-0.249693	1.01635	0.452347	0.019651	-0.136166	0.356924	-0.150151	0	0	-0.315175	0.0290966	-0.198915	0.206347	-0.153611	0	0	-0.402033	0.0189543	-0.0733053	0.0379107	-0.296058	0.744018	0.427248	1.02821	0	0	-0.0480879	-0.348074	0.406401	0.530208	1.09213	0	0
1.72	-0.100637	1.53137	-1.34994	0.71114	-0.260599	1.01464	0.450656	0.0189391	-0.131757	0.351196	-0.151454	0	0	-0.327641	0.0253275	-0.194314	0.202696	-0.153094	0	0	-0.402927	0.0241164	-0.0761631	0.01783	-0.277923	0.618186	0.423109	1.15493	0	0	-0.0458746	-0.348487	0.414053	0.531201	1.09004	0	0
1.73	-0.121146	1.53084	-1.32033	0.712248	-0.271655	1.01289	0.449132	0.018238	-0.126223	0.354863	-0.150289	0	0	-0.339845	0.0205928	-0.192911	0.202059	-0.152219	0	0	-0.402871	0.029891	-0.0830566	0.0164404	-0.280601	0.628402	0.424981	1.14047	0	0	-0.0481146	-0.346123	0.407479	0.531556	1.0973	0	0
1.74	-0.143416	1.52894	-1.28842	0.713349	-0.282879	1.0112	0.446702	0.0178004	-0.120782	0.367999	-0.148311	0	0	-0.353092	0.0150635	-0.191493	0.202084	-0.151019	0	0	-0.404138	0.0362872	-0.0906749	0.0144566	-0.283801	0.637421	0.428711	1.12608	0	0	-0.0508178	-0.343722	0.399906	0.532148	1.10505	0	0
1.75	-0.16305	1.52617	-1.25898	0.714382	-0.294354	1.00949	0.444205	0.0176177	-0.116269	0.392232	-0.145591	0	0	-0.367018	0.00872727	-0.190501	0.202901	-0.149481	0	0	-0.405858	0.0428382	-0.0991203	0.012271	-0.28819	0.649838	0.434424	1.10934	0	0	-0.0554059	-0.341369	0.388989	0.534178	1.11514	0	0
1.76	-0.177667	1.52402	-1.23535	0.71526	-0.30626	1.00761	0.44269	0.0178264	-0.112274	0.424255	-0.14481	0	0	-0.380317	0.0022946	-0.191394	0.20459	-0.148435	0	0	-0.405957	0.0484762	-0.107217	0.0092942	-0.292173	0.66203	0.43942	1.09384	0	0	-0.060964	-0.339148	0.378321	0.535416	1.12622	0	0
